<svg height="179" viewBox="-2 -2 179 179" width="179" xmlns="http://www.w3.org/2000/svg"><rect fill="#fff" height="169.17" rx="16.53" width="169.17" x="2.92" y="2.92"/><path d="m155.56 5.83a13.63 13.63 0 0 1 13.61 13.61v136.12a13.63 13.63 0 0 1 -13.61 13.61h-136.12a13.63 13.63 0 0 1 -13.61-13.61v-136.12a13.63 13.63 0 0 1 13.61-13.61zm0-5.83h-136.12a19.45 19.45 0 0 0 -19.44 19.44v136.12a19.45 19.45 0 0 0 19.44 19.44h136.12a19.45 19.45 0 0 0 19.44-19.44v-136.12a19.45 19.45 0 0 0 -19.44-19.44z" fill="#e6af22"/><path d="m0 100.33h175a0 0 0 0 1 0 0v55.22a19.44 19.44 0 0 1 -19.44 19.45h-136.12a19.44 19.44 0 0 1 -19.44-19.44v-55.23a0 0 0 0 1 0 0z" fill="#e6af22"/><g fill="#fff"><path d="m23.33 117a7 7 0 0 1 6 3.1l-2.15 1.21a4.74 4.74 0 0 0 -3.87-2 5.41 5.41 0 0 0 0 10.8 5.52 5.52 0 0 0 3.54-1.34v-2.33h-4.43v-2.3h7.06v5.59a8.08 8.08 0 0 1 -6.15 2.7 7.72 7.72 0 1 1 0-15.44z"/><path d="m32.15 126.76a5.56 5.56 0 1 1 5.54 5.68 5.4 5.4 0 0 1 -5.54-5.68zm8.67 0c0-1.9-1.12-3.57-3.13-3.57s-3.11 1.67-3.11 3.57 1.12 3.6 3.11 3.6 3.13-1.68 3.13-3.6z"/><path d="m46.08 117.26h2.34v14.91h-2.34z"/><path d="m59.74 130.7a4.39 4.39 0 0 1 -3.47 1.74c-2.77 0-4.8-2.1-4.8-5.66s2-5.67 4.8-5.67a4.33 4.33 0 0 1 3.47 1.76v-5.61h2.34v14.91h-2.34zm0-6.06a3.54 3.54 0 0 0 -2.8-1.45c-1.85 0-3 1.49-3 3.59s1.19 3.58 3 3.58a3.55 3.55 0 0 0 2.8-1.43z"/><path d="m71.61 124.73a7.5 7.5 0 0 1 7.72-7.73 6.79 6.79 0 0 1 6.1 3.35l-2.24 1.14a4.46 4.46 0 0 0 -3.86-2.17 5.4 5.4 0 0 0 0 10.77 4.41 4.41 0 0 0 3.86-2.09l2.24 1.14a6.81 6.81 0 0 1 -6.1 3.35 7.5 7.5 0 0 1 -7.72-7.76z"/><path d="m92.94 121.11c3.25 0 5.32 2.48 5.32 5.88v.55h-8.33a3.26 3.26 0 0 0 3.44 3 4.57 4.57 0 0 0 3.06-1.19l1.07 1.55a6.32 6.32 0 0 1 -4.38 1.56 5.67 5.67 0 0 1 -.18-11.33zm-3 4.78h6.06a2.88 2.88 0 0 0 -3-2.86 3 3 0 0 0 -3.1 2.86z"/><path d="m100.82 121.37h2.34v1.63a4.61 4.61 0 0 1 3.51-1.83v2.32a3.56 3.56 0 0 0 -3.51 1.37v7.35h-2.34z"/><path d="m109.72 129.67v-6.24h-1.79v-2.06h1.79v-3h2.34v3h2.19v2.06h-2.19v5.66c0 .73.36 1.27 1 1.27a1.52 1.52 0 0 0 1-.38l.56 1.77a3.1 3.1 0 0 1 -2.21.69 2.49 2.49 0 0 1 -2.69-2.77z"/><path d="m116.76 118.13a1.46 1.46 0 1 1 1.45 1.46 1.46 1.46 0 0 1 -1.45-1.46zm.29 3.24h2.35v10.8h-2.35z"/><path d="m123.67 123.43h-1.79v-2.06h1.79v-.6c0-2.41 1.43-3.73 3.42-3.73a3.87 3.87 0 0 1 1.88.42l-.52 1.75a1.57 1.57 0 0 0 -.94-.25c-.91 0-1.49.6-1.49 1.81v.6h2.19v2.06h-2.21v8.74h-2.35zm6-5.3a1.47 1.47 0 0 1 1.46-1.45 1.46 1.46 0 0 1 0 2.91 1.47 1.47 0 0 1 -1.43-1.46zm.3 3.24h2.34v10.8h-2.31z"/><path d="m140 121.11c3.24 0 5.32 2.48 5.32 5.88v.55h-8.32a3.27 3.27 0 0 0 3.44 3 4.59 4.59 0 0 0 3.07-1.19l1.07 1.55a6.32 6.32 0 0 1 -4.38 1.56 5.67 5.67 0 0 1 -.18-11.33zm-3 4.78h6a2.89 2.89 0 0 0 -3-2.86 3 3 0 0 0 -3.07 2.86z"/><path d="m155.78 130.7a4.39 4.39 0 0 1 -3.47 1.74c-2.77 0-4.8-2.1-4.8-5.66s2-5.67 4.8-5.67a4.35 4.35 0 0 1 3.47 1.76v-5.61h2.34v14.91h-2.34zm0-6.06a3.54 3.54 0 0 0 -2.8-1.45c-1.85 0-3 1.49-3 3.59s1.19 3.58 3 3.58a3.55 3.55 0 0 0 2.8-1.43z"/><path d="m36.45 140.59h2.62v14.91h-2.62z"/><path d="m50.13 148.75c0-1.68-.85-2.23-2.17-2.23a3.56 3.56 0 0 0 -2.77 1.48v7.53h-2.34v-10.83h2.34v1.48a5.11 5.11 0 0 1 3.8-1.74c2.33 0 3.49 1.25 3.49 3.46v7.6h-2.35z"/><path d="m56.67 153v-6.24h-1.79v-2.06h1.79v-2.95h2.33v2.95h2.2v2.06h-2.2v5.66c0 .73.36 1.27 1 1.27a1.52 1.52 0 0 0 1.05-.38l.56 1.77a3.1 3.1 0 0 1 -2.21.69 2.49 2.49 0 0 1 -2.73-2.77z"/><path d="m68.81 144.44c3.24 0 5.32 2.48 5.32 5.88v.55h-8.34a3.27 3.27 0 0 0 3.44 3 4.57 4.57 0 0 0 3.06-1.19l1.08 1.55a6.35 6.35 0 0 1 -4.37 1.54 5.67 5.67 0 0 1 -.17-11.33zm-3 4.78h6.08a2.89 2.89 0 0 0 -3-2.86 3 3 0 0 0 -3.12 2.86z"/><path d="m78.09 156.57a4.17 4.17 0 0 0 3.42 1.43c1.54 0 3.19-.71 3.19-2.93v-1.29a4.36 4.36 0 0 1 -3.46 1.78c-2.75 0-4.79-2-4.79-5.54s2-5.54 4.79-5.54a4.29 4.29 0 0 1 3.46 1.76v-1.5h2.35v10.24c0 3.89-2.88 4.94-5.54 4.94a6.08 6.08 0 0 1 -4.51-1.65zm6.61-8.57a3.47 3.47 0 0 0 -2.77-1.45c-1.85 0-3 1.38-3 3.46s1.19 3.46 3 3.46a3.47 3.47 0 0 0 2.77-1.47z"/><path d="m90.76 144.7h2.35v1.59a4.61 4.61 0 0 1 3.51-1.83v2.32a3.88 3.88 0 0 0 -.74-.06 3.73 3.73 0 0 0 -2.77 1.43v7.35h-2.35z"/><path d="m105.79 154.34a4.56 4.56 0 0 1 -3.49 1.43 3.59 3.59 0 0 1 -3.75-3.58 3.48 3.48 0 0 1 3.75-3.51 4.46 4.46 0 0 1 3.49 1.39v-1.61c0-1.25-1-2-2.53-2a4.43 4.43 0 0 0 -3.19 1.36l-1-1.63a6.42 6.42 0 0 1 4.53-1.74c2.4 0 4.5 1 4.5 3.91v7.15h-2.35zm0-2.93a3.16 3.16 0 0 0 -2.57-1.12 2 2 0 1 0 0 3.87 3.16 3.16 0 0 0 2.57-1.12z"/><path d="m112.32 153v-6.24h-1.79v-2.06h1.79v-2.95h2.35v2.95h2.19v2.06h-2.19v5.66c0 .73.36 1.27 1 1.27a1.54 1.54 0 0 0 1-.38l.56 1.77a3.13 3.13 0 0 1 -2.22.69 2.49 2.49 0 0 1 -2.69-2.77z"/><path d="m119 150.09a5.56 5.56 0 1 1 5.55 5.68 5.41 5.41 0 0 1 -5.55-5.68zm8.68 0c0-1.9-1.12-3.57-3.13-3.57s-3.11 1.67-3.11 3.57 1.12 3.6 3.11 3.6 3.11-1.69 3.11-3.6z"/><path d="m133.14 144.7h2.35v1.59a4.59 4.59 0 0 1 3.51-1.83v2.32a4 4 0 0 0 -.74-.06 3.71 3.71 0 0 0 -2.77 1.43v7.35h-2.35z"/></g><path d="m31.71 48.8v23.31h-3.52v-23.31z" fill="#124068"/><path d="m49.19 71.77c0 .69 0 1.3-.07 1.83a11.9 11.9 0 0 1 -.19 1.4 6.15 6.15 0 0 1 -1.42 2.85 6.83 6.83 0 0 1 -5.51 2.3 7.32 7.32 0 0 1 -4.85-1.59 6.51 6.51 0 0 1 -2.23-4.56h3.41a3.86 3.86 0 0 0 .67 1.71 3.67 3.67 0 0 0 3.08 1.37q3.73 0 3.73-4.56v-2a6.47 6.47 0 0 1 -9.59-.11 8.1 8.1 0 0 1 -1.93-5.51 8.49 8.49 0 0 1 1.8-5.47 6.24 6.24 0 0 1 5.08-2.43 5.9 5.9 0 0 1 4.62 2.07v-1.67h3.4zm-3.26-7a5 5 0 0 0 -1.15-3.43 3.79 3.79 0 0 0 -3-1.31 3.69 3.69 0 0 0 -3.06 1.43 5.25 5.25 0 0 0 -1 3.32 5.18 5.18 0 0 0 1 3.29 4 4 0 0 0 6.14 0 5.05 5.05 0 0 0 1.07-3.27z" fill="#124068"/><path d="m52.55 57.4h3.45v1.36a5.56 5.56 0 0 1 4-1.76 5.08 5.08 0 0 1 4 1.61c.83.92 1.24 2.41 1.24 4.49v9h-3.43v-8.2a5.29 5.29 0 0 0 -.61-3 2.43 2.43 0 0 0 -2.14-.85 2.61 2.61 0 0 0 -2.4 1.12 7.68 7.68 0 0 0 -.66 3.83v7.09h-3.45z" fill="#124068"/><path d="m68.07 51.29a2.21 2.21 0 0 1 3.77-1.54 2.06 2.06 0 0 1 .66 1.55 2.11 2.11 0 0 1 -.66 1.57 2.05 2.05 0 0 1 -1.55.65 2.1 2.1 0 0 1 -1.57-.65 2.16 2.16 0 0 1 -.65-1.58zm3.93 6.11v14.71h-3.4v-14.71z" fill="#124068"/><path d="m79.48 60.58v11.53h-3.4v-11.53h-1.45v-3.18h1.45v-5.4h3.4v5.4h2.64v3.18z" fill="#124068"/><path d="m83.61 51.29a2.22 2.22 0 0 1 2.21-2.19 2.13 2.13 0 0 1 1.57.65 2.09 2.09 0 0 1 .61 1.55 2.14 2.14 0 0 1 -.65 1.57 2.09 2.09 0 0 1 -1.56.65 2.11 2.11 0 0 1 -1.57-.65 2.16 2.16 0 0 1 -.61-1.58zm3.91 6.11v14.71h-3.4v-14.71z" fill="#124068"/><path d="m90.2 64.65a7.31 7.31 0 0 1 2.28-5.42 8.06 8.06 0 0 1 11.15 0 7.86 7.86 0 0 1 0 11.07 7.78 7.78 0 0 1 -5.63 2.24 7.48 7.48 0 0 1 -5.54-2.27 7.62 7.62 0 0 1 -2.26-5.62zm3.48.07a4.93 4.93 0 0 0 1.18 3.48 4.11 4.11 0 0 0 3.14 1.3 4.17 4.17 0 0 0 3.19-1.28 5.54 5.54 0 0 0 0-6.86 4.18 4.18 0 0 0 -3.19-1.3 4.11 4.11 0 0 0 -3.15 1.3 4.71 4.71 0 0 0 -1.17 3.36z" fill="#124068"/><path d="m119.29 59.27-1.36-1.88a6.1 6.1 0 0 0 -2.25-.39 5.56 5.56 0 0 0 -4 1.76v-1.36h-3.41v14.71h3.41v-7.11a7.68 7.68 0 0 1 .7-3.84 2.62 2.62 0 0 1 2.4-1.12 2.46 2.46 0 0 1 2.15.85 5.39 5.39 0 0 1 .6 3v8.2h3.41v-9a11.07 11.07 0 0 0 -.13-1.81z" fill="#124068"/><path d="m154.37 29.2a4.38 4.38 0 0 0 -1.87-2 4.28 4.28 0 0 0 -2.7-.55 3.39 3.39 0 0 0 -2.46 2c-.13.22-.45.91-1 2.06l-2 4.36c-.82 1.75-1.74 3.73-2.78 5.92s-2.11 4.51-3.21 6.93l-3.35 7.28q-1.67 3.63-3.16 6.89a6.38 6.38 0 0 1 1.36.78c2-3 4.24-6.2 6.56-9.58s4.55-6.65 6.57-9.65l5.16-7.64c1.42-2.09 2.24-3.32 2.44-3.68a3.44 3.44 0 0 0 .44-3.12z" fill="#f69120"/><path d="m126.15 62.15c-.65-2.59-1.18-4.66-1.58-6.24s-.76-2.85-1-3.78-.48-1.6-.64-2a9 9 0 0 0 -.45-1.11 2.6 2.6 0 0 0 -1.54-1.43 3.21 3.21 0 0 0 -3.69 1.77 2.53 2.53 0 0 0 .14 2.09 9.53 9.53 0 0 0 .57 1c.24.4.64 1 1.19 1.78s1.32 1.85 2.29 3.17 2.28 3 3.9 5.2a5.79 5.79 0 0 1 .81-.45z" fill="#f69120"/><path d="m133.34 68.51a4.29 4.29 0 1 1 -4.29-4.28 4.29 4.29 0 0 1 4.29 4.28z" fill="#f69120"/></svg>